<svg width="133" height="133" viewBox="0 0 133 133" fill="none" xmlns="http://www.w3.org/2000/svg">
<g style="mix-blend-mode:multiply">
<circle r="66.5" transform="matrix(-1 0 0 1 66.5 66.5)" fill="#F2F2F2"/>
</g>
<path d="M116.662 121.475L105.386 112.535C104.743 112.011 103.788 112.082 103.217 112.702L94.5156 122.31C93.919 122.978 92.8948 123.001 92.2269 122.381L82.215 112.702C81.5719 112.082 80.5709 112.106 79.9743 112.75L70.796 122.358C70.1762 123.001 69.152 123.001 68.5321 122.381L58.8301 112.727C58.2103 112.107 57.2093 112.107 56.5894 112.727L46.9107 122.358C46.2676 123.001 45.2417 122.978 44.6219 122.31L35.8248 112.75C35.2282 112.107 34.252 112.059 33.6073 112.631L24.1192 121.141C23.0949 122.048 21.4724 121.332 21.4724 119.95L22.0915 21.9058C22.0915 21.0241 22.8075 20.3081 23.6892 20.3081H118.256C119.138 20.3081 119.854 21.0241 119.854 21.9058L119.235 120.235C119.238 121.571 117.712 122.31 116.662 121.475Z" fill="#E9E9E9"/>
<path d="M111.346 116.971L111.345 116.971L100.071 108.033C100.071 108.033 100.07 108.032 100.07 108.032C99.3225 107.424 98.2197 107.51 97.5604 108.225L97.5589 108.226L88.8579 117.834L88.8568 117.835C88.3596 118.392 87.4982 118.42 86.9264 117.891C86.9258 117.891 86.9251 117.89 86.9245 117.89L76.9163 108.214L76.9161 108.214C76.1749 107.5 75.0137 107.523 74.3196 108.271C74.3192 108.272 74.3188 108.272 74.3184 108.272L65.1436 117.876C65.1435 117.876 65.1435 117.876 65.1434 117.876C64.6213 118.418 63.7581 118.418 63.2365 117.896L63.236 117.896L53.5345 108.242C52.817 107.525 51.6577 107.525 50.9403 108.242L41.2619 117.873L41.2615 117.873C40.7198 118.415 39.8576 118.397 39.3332 117.832C39.3331 117.832 39.3329 117.832 39.3327 117.832L30.5364 108.273L30.5357 108.272C29.8478 107.531 28.7167 107.473 27.969 108.136L27.968 108.137L18.4811 116.646C18.4809 116.646 18.4808 116.646 18.4806 116.646C17.6161 117.411 16.2506 116.806 16.25 115.642C16.25 115.642 16.25 115.642 16.25 115.642L16.8691 17.5992L16.8691 17.5992V17.5977C16.8691 16.854 17.4731 16.25 18.2168 16.25H112.784C113.527 16.25 114.131 16.8538 114.131 17.5973C114.131 17.5974 114.131 17.5975 114.131 17.5977L113.512 115.925L113.512 115.927C113.515 117.053 112.231 117.676 111.346 116.971Z" fill="white" stroke="#AAAAAA" stroke-width="0.5"/>
<path d="M99.8084 90.773H33.8701C32.9884 90.773 32.2725 90.057 32.2725 89.1753V75.6582C32.2725 74.7765 32.9884 74.0605 33.8701 74.0605H99.8316C100.713 74.0605 101.429 74.7765 101.429 75.6582V89.1753C101.404 90.057 100.69 90.773 99.8084 90.773Z" fill="#E9E9E9"/>
<path d="M99.8086 66.9312H75.6759C74.7942 66.9312 74.0782 66.2152 74.0782 65.3335V51.8164C74.0782 50.9347 74.7942 50.2188 75.6759 50.2188H99.8318C100.713 50.2188 101.429 50.9347 101.429 51.8164V65.3335C101.405 66.2152 100.69 66.9312 99.8086 66.9312Z" fill="#F2F2F2"/>
<path d="M63.6743 65.5117C64.8561 65.5117 65.7802 64.4925 65.6647 63.3163L62.7621 33.75L36.2712 33.7685L33.3035 63.3118C33.1852 64.4895 34.1099 65.5117 35.2935 65.5117H63.6743Z" fill="#FF898C"/>
<path d="M55.8405 36.4753L55.755 30.604C55.755 27.0845 52.9019 24.2314 49.3825 24.2314C45.863 24.2314 43.0099 27.0845 43.0099 30.604L43.01 36.7321" stroke="#A27BE8" stroke-miterlimit="10"/>
</svg>
